# xmcd
#
# Track frame offsets: 
#        182
#        15462
#        29725
#        43180
#        60495
#        79632
#        91647
#        108745
#        123757
#        135295
#
# Disc length: 2011 seconds
#
# Revision: 4
# Processed by: cddbd v1.5.2PL0 Copyright (c) Steve Scherf et al.
# Submitted via: ExactAudioCopyFreeDBPlugin 1.0
#
DISCID=7307d90a
DTITLE=Dwight Yoakam - Come On Christmas
DYEAR=1997
DGENRE=Holiday
TTITLE0=Come on Christmas
TTITLE1=Run Run Rudolph
TTITLE2=Silver Bells
TTITLE3=I'll Be Home for Christmas
TTITLE4=Silent Night
TTITLE5=Santa Claus is Back in Town
TTITLE6=The Christmas Song (Chestnuts Roasting on an Open Fire)
TTITLE7=Away in a Manger
TTITLE8=Here Comes Santa Claus
TTITLE9=Santa Can't Stay
EXTD=
EXTT0=
EXTT1=
EXTT2=
EXTT3=
EXTT4=
EXTT5=
EXTT6=
EXTT7=
EXTT8=
EXTT9=
PLAYORDER=
